<svg width="23" height="23" viewBox="0 0 23 23" fill="none" xmlns="http://www.w3.org/2000/svg">
<path d="M-4.40004e-07 12.9339L3.41273 14.3678C3.49877 14.6546 3.64216 14.9127 3.78555 15.1708L2.35163 18.5835L4.41647 20.6484L7.82921 19.2144C8.11599 19.3578 8.34542 19.4726 8.6322 19.5873L10.0661 23L12.934 23L14.3679 19.5873C14.6547 19.4726 14.8841 19.3578 15.1709 19.2144L18.5836 20.6484L20.6485 18.5835L19.2145 15.1708C19.3292 14.9127 19.4726 14.6546 19.5874 14.3678L23.0001 12.9339L23.0001 10.066L19.5874 8.63212C19.4726 8.37401 19.3579 8.08722 19.2145 7.82912L20.6485 4.41639L18.5836 2.35154L15.1709 3.78546C14.9128 3.67075 14.626 3.52736 14.3679 3.41264L12.934 -8.67409e-05L10.0661 -8.66155e-05L8.6322 3.41264C8.37409 3.49868 8.08731 3.64207 7.82921 3.78546L4.41647 2.35154L2.35163 4.41639L3.78555 7.82912C3.67084 8.08723 3.52744 8.37401 3.41273 8.63212L-5.65362e-07 10.066L-4.40004e-07 12.9339ZM7.1696 11.5C7.1696 9.11965 9.09106 7.1982 11.4714 7.19819C13.8517 7.19819 15.7731 9.11965 15.7731 11.5C15.7731 13.8803 13.8517 15.8017 11.4714 15.8017C9.09106 15.8017 7.1696 13.8803 7.1696 11.5Z" fill="white"/>
</svg>
